<svg xmlns="http://www.w3.org/2000/svg" width="102.462" height="107.471" viewBox="0 0 102.462 107.471">
  <g id="svgexport-10_1_" data-name="svgexport-10 (1)" transform="translate(-3.491 -2)">
    <g id="Group_9078" data-name="Group 9078" transform="translate(3.491 2)">
      <g id="Group_9077" data-name="Group 9077">
        <path id="Path_11625" data-name="Path 11625" d="M104.274,72.125a1.679,1.679,0,0,0,1.679-1.679V27.874a6.725,6.725,0,0,0-6.717-6.717H95.5V8.717A6.725,6.725,0,0,0,88.781,2H20.663a6.725,6.725,0,0,0-6.717,6.717V77.841a1.679,1.679,0,0,0,1.679,1.679h86.969v9.972a3.067,3.067,0,0,1-3.073,3.054H9.923A3.067,3.067,0,0,1,6.85,89.492V27.874a3.362,3.362,0,0,1,3.358-3.358,1.679,1.679,0,0,0,0-3.358,6.725,6.725,0,0,0-6.717,6.717V89.492A6.429,6.429,0,0,0,9.923,95.9h27.63v10.2H30.321a1.679,1.679,0,0,0,0,3.358c47.825.006,39.6,0,49.533,0a1.679,1.679,0,0,0,0-3.358H72.632V95.9h26.89a6.429,6.429,0,0,0,6.432-6.413V77.841a1.679,1.679,0,0,0-1.679-1.679H17.305V8.717a3.362,3.362,0,0,1,3.358-3.358H70.885v11.76H21.566a1.679,1.679,0,1,0,0,3.358H92.14V69.445a1.679,1.679,0,0,0,3.358,0V24.515h3.738a3.362,3.362,0,0,1,3.358,3.358V70.446a1.679,1.679,0,0,0,1.679,1.679ZM40.912,106.11v-10.2H69.273v10.2ZM74.244,17.118V5.358H88.781A3.362,3.362,0,0,1,92.14,8.717v8.4Z" transform="translate(-3.491 -2)" fill="#530be5"/>
        <path id="Path_11626" data-name="Path 11626" d="M40.352,42.455a1.679,1.679,0,0,0,2.375,0l8.194-8.194a1.679,1.679,0,0,0,0-2.375l-8.194-8.194a1.679,1.679,0,0,0-2.375,2.375l7.007,7.007L40.352,40.08A1.679,1.679,0,0,0,40.352,42.455Z" transform="translate(21.211 12.4)" fill="#530be5"/>
        <path id="Path_11627" data-name="Path 11627" d="M32.321,23.692a1.679,1.679,0,0,0-2.375,0l-8.194,8.194a1.679,1.679,0,0,0,0,2.375l8.194,8.194a1.679,1.679,0,0,0,2.375-2.375l-7.007-7.006,7.007-7.007a1.679,1.679,0,0,0,0-2.375Z" transform="translate(8.577 12.4)" fill="#530be5"/>
        <path id="Path_11628" data-name="Path 11628" d="M39.518,20.672,29.711,49.366a1.679,1.679,0,1,0,3.178,1.086L42.7,21.758a1.679,1.679,0,1,0-3.178-1.086Z" transform="translate(14.256 9.911)" fill="#530be5"/>
        <path id="Path_11629" data-name="Path 11629" d="M15.8,9.86h2.6a1.679,1.679,0,1,0,0-3.358H15.8a1.679,1.679,0,1,0,0,3.358Z" transform="translate(3.731 1.058)" fill="#530be5"/>
        <path id="Path_11630" data-name="Path 11630" d="M23.914,9.86a1.679,1.679,0,0,0,0-3.358h-2.6a1.679,1.679,0,1,0,0,3.358Z" transform="translate(7.475 1.058)" fill="#530be5"/>
        <path id="Path_11631" data-name="Path 11631" d="M29.427,9.86a1.679,1.679,0,0,0,0-3.358h-2.6a1.679,1.679,0,0,0,0,3.358Z" transform="translate(11.22 1.058)" fill="#530be5"/>
      </g>
    </g>
  </g>
</svg>
