<svg xmlns="http://www.w3.org/2000/svg" width="86.681" height="111.642" viewBox="0 0 86.681 111.642">
  <g id="svgexport-6_4_" data-name="svgexport-6 (4)" transform="translate(-9.155 -2)">
    <g id="Group_9074" data-name="Group 9074" transform="translate(9.155 2)">
      <g id="Group_9073" data-name="Group 9073">
        <path id="Path_11610" data-name="Path 11610" d="M28.322,9.237h8.866a1.744,1.744,0,0,0,0-3.489H28.322a1.744,1.744,0,0,0,0,3.489Z" transform="translate(3.815 0.79)" fill="#0baae5"/>
        <path id="Path_11611" data-name="Path 11611" d="M23.789,63.072H39.6a1.744,1.744,0,1,0,0-3.489H23.789a1.744,1.744,0,0,0,0,3.489Z" transform="translate(0.441 40.866)" fill="#0baae5"/>
        <path id="Path_11612" data-name="Path 11612" d="M10.9,88.582a1.744,1.744,0,0,0,1.744-1.744V18.572h57.3v8.973a1.744,1.744,0,1,0,3.489,0c0-2.1,0,6.438.008-18.6A6.965,6.965,0,0,0,66.482,2H16.1A7,7,0,0,0,9.155,8.948v77.89A1.745,1.745,0,0,0,10.9,88.582ZM66.477,5.489a3.48,3.48,0,0,1,3.463,3.459v6.135h-57.3V8.943A3.466,3.466,0,0,1,16.1,5.489Z" transform="translate(-9.155 -2)" fill="#0baae5"/>
        <path id="Path_11613" data-name="Path 11613" d="M33.97,34.75a1.744,1.744,0,0,0,2.467-.012l7.29-7.358a1.743,1.743,0,0,0,0-2.455l-7.29-7.358a1.744,1.744,0,0,0-2.479,2.455l6.074,6.131-6.074,6.131a1.744,1.744,0,0,0,.012,2.467Z" transform="translate(8.933 9.203)" fill="#0baae5"/>
        <path id="Path_11614" data-name="Path 11614" d="M25.785,17.555a1.741,1.741,0,0,0-2.467.012l-7.289,7.358a1.743,1.743,0,0,0,0,2.455l7.289,7.358A1.744,1.744,0,1,0,25.8,32.284l-6.073-6.131L25.8,20.022a1.744,1.744,0,0,0-.012-2.467Z" transform="translate(-4.414 9.202)" fill="#0baae5"/>
        <path id="Path_11615" data-name="Path 11615" d="M33.612,14.984,23.373,40.749a1.744,1.744,0,0,0,3.242,1.288L36.854,16.272a1.744,1.744,0,0,0-3.242-1.288Z" transform="translate(1.337 6.844)" fill="#0baae5"/>
        <path id="Path_11616" data-name="Path 11616" d="M48.958,33.04A9.263,9.263,0,1,0,58.2,42.3,9.269,9.269,0,0,0,48.958,33.04ZM50.7,47.8V41.152a1.744,1.744,0,1,0-3.489,0v6.664A5.784,5.784,0,1,1,50.7,47.8Z" transform="translate(13.58 21.106)" fill="#0baae5"/>
        <path id="Path_11617" data-name="Path 11617" d="M94.282,43.14l-4.291-.488a19.134,19.134,0,0,0-1.256-2.965l2.512-3.559a1.723,1.723,0,0,0-.174-2.233l-5.006-4.989a1.738,1.738,0,0,0-2.32-.14l-3.367,2.7a18.388,18.388,0,0,0-2.983-1.2l-.715-4.309a1.744,1.744,0,0,0-1.727-1.448H67.89a1.755,1.755,0,0,0-1.744,1.553l-.471,4.309a19.115,19.115,0,0,0-2.948,1.239L59.15,29.08a1.724,1.724,0,0,0-2.233.192l-4.989,4.989a1.737,1.737,0,0,0-.122,2.32l2.686,3.384a18.384,18.384,0,0,0-1.2,2.983L49,43.664a1.773,1.773,0,0,0-1.465,1.727v7.065a1.752,1.752,0,0,0,1.553,1.727l4.291.488a19.393,19.393,0,0,0,1.256,2.966L52.12,61.177a1.749,1.749,0,0,0,.192,2.25L57.3,68.417a1.737,1.737,0,0,0,2.32.122l3.384-2.686a19.845,19.845,0,0,0,2.965,1.186l.715,4.309a1.743,1.743,0,0,0,1.727,1.465h1.535v3.855H10.9a1.75,1.75,0,0,0-1.744,1.744V89.943A6.961,6.961,0,0,0,16.1,96.885H66.477a6.965,6.965,0,0,0,6.96-6.943V72.813h2.041a1.755,1.755,0,0,0,1.744-1.553l.488-4.309a19.887,19.887,0,0,0,2.948-1.239l3.559,2.529a1.77,1.77,0,0,0,2.25-.192l4.972-5.006a1.715,1.715,0,0,0,.122-2.3l-2.686-3.384a19.752,19.752,0,0,0,1.2-2.983l4.291-.733a1.755,1.755,0,0,0,1.465-1.71V44.867a1.725,1.725,0,0,0-1.552-1.727Zm-24.334,46.8A3.466,3.466,0,0,1,66.477,93.4H16.1a3.462,3.462,0,0,1-3.454-3.454V80.157h57.3v9.786Zm22.4-39.493-3.942.663a1.754,1.754,0,0,0-1.413,1.326A15.967,15.967,0,0,1,85.3,56.659a1.711,1.711,0,0,0,.14,1.954l2.425,3.07-2.826,2.861-3.279-2.338a1.743,1.743,0,0,0-1.919-.052A14.563,14.563,0,0,1,75.687,63.9a1.768,1.768,0,0,0-1.326,1.5l-.436,3.925H69.878l-.663-3.96a1.714,1.714,0,0,0-1.308-1.4,15.9,15.9,0,0,1-4.187-1.709,1.736,1.736,0,0,0-1.971.139l-3.088,2.442L55.818,62l2.3-3.227a1.854,1.854,0,0,0,.07-1.954,15.147,15.147,0,0,1-1.779-4.187,1.71,1.71,0,0,0-1.483-1.291l-3.908-.454V46.873l3.942-.663a1.756,1.756,0,0,0,1.413-1.326,14.4,14.4,0,0,1,1.71-4.187,1.765,1.765,0,0,0-.122-1.989L55.5,35.622l2.843-2.843L61.61,35.1a1.744,1.744,0,0,0,1.919.07,15.109,15.109,0,0,1,4.187-1.762,1.732,1.732,0,0,0,1.291-1.483L69.442,28h4.047l.663,3.942a1.737,1.737,0,0,0,1.308,1.413,14.7,14.7,0,0,1,4.2,1.709,1.736,1.736,0,0,0,1.971-.14l3.07-2.46,2.843,2.861-2.3,3.245a1.823,1.823,0,0,0-.07,1.936,15.059,15.059,0,0,1,1.762,4.169,1.752,1.752,0,0,0,1.5,1.308l3.907.436v4.03Z" transform="translate(-9.154 14.757)" fill="#0baae5"/>
      </g>
    </g>
  </g>
</svg>
