<svg xmlns="http://www.w3.org/2000/svg" width="111.219" height="121.004" viewBox="0 0 111.219 121.004">
  <g id="svgexport-6_5_" data-name="svgexport-6 (5)" transform="translate(-20.702)">
    <g id="Group_9101" data-name="Group 9101" transform="translate(20.702 0)">
      <g id="Group_9093" data-name="Group 9093">
        <g id="Group_9080" data-name="Group 9080" transform="translate(53.246)">
          <g id="Group_9079" data-name="Group 9079">
            <path id="Path_11632" data-name="Path 11632" d="M248.363,12A2.363,2.363,0,0,1,246,9.64V2.363a2.363,2.363,0,1,1,4.727,0V9.64A2.363,2.363,0,0,1,248.363,12Z" transform="translate(-246 0)" fill="#e5b80b"/>
          </g>
        </g>
        <g id="Group_9085" data-name="Group 9085" transform="translate(17.358 14.865)">
          <g id="Group_9082" data-name="Group 9082" transform="translate(0 0)">
            <g id="Group_9081" data-name="Group 9081">
              <path id="Path_11633" data-name="Path 11633" d="M101.657,72.77a2.355,2.355,0,0,1-1.671-.692L94.84,66.933a2.363,2.363,0,1,1,3.342-3.342l5.145,5.145a2.363,2.363,0,0,1-1.671,4.034Z" transform="translate(-94.148 -62.898)" fill="#e5b80b"/>
            </g>
          </g>
          <g id="Group_9084" data-name="Group 9084" transform="translate(66.631)">
            <g id="Group_9083" data-name="Group 9083">
              <path id="Path_11634" data-name="Path 11634" d="M378.445,72.769a2.363,2.363,0,0,1-1.671-4.035l5.145-5.145a2.364,2.364,0,0,1,3.343,3.342l-5.145,5.145A2.356,2.356,0,0,1,378.445,72.769Z" transform="translate(-376.081 -62.897)" fill="#e5b80b"/>
            </g>
          </g>
        </g>
        <g id="Group_9087" data-name="Group 9087" transform="translate(7.899 78.626)">
          <g id="Group_9086" data-name="Group 9086">
            <path id="Path_11635" data-name="Path 11635" d="M56.488,342.562a2.363,2.363,0,0,1-1.671-4.035l5.145-5.145a2.363,2.363,0,0,1,3.342,3.342l-5.145,5.145a2.355,2.355,0,0,1-1.671.692Z" transform="translate(-54.124 -332.69)" fill="#e5b80b"/>
          </g>
        </g>
        <g id="Group_9089" data-name="Group 9089" transform="translate(93.448 78.626)">
          <g id="Group_9088" data-name="Group 9088">
            <path id="Path_11636" data-name="Path 11636" d="M423.615,342.562a2.355,2.355,0,0,1-1.671-.692l-5.145-5.145a2.364,2.364,0,0,1,3.342-3.342l5.145,5.145a2.363,2.363,0,0,1-1.672,4.035Z" transform="translate(-416.106 -332.69)" fill="#e5b80b"/>
          </g>
        </g>
        <g id="Group_9092" data-name="Group 9092" transform="translate(0 50.753)">
          <g id="Group_9090" data-name="Group 9090" transform="translate(99.215)">
            <path id="Path_11637" data-name="Path 11637" d="M450.15,219.478h-7.276a2.363,2.363,0,0,1,0-4.727h7.276a2.363,2.363,0,0,1,0,4.727Z" transform="translate(-440.51 -214.751)" fill="#e5b80b"/>
          </g>
          <g id="Group_9091" data-name="Group 9091">
            <path id="Path_11638" data-name="Path 11638" d="M30.342,219.478H23.065a2.363,2.363,0,1,1,0-4.727h7.276a2.363,2.363,0,1,1,0,4.727Z" transform="translate(-20.702 -214.751)" fill="#e5b80b"/>
          </g>
        </g>
      </g>
      <g id="Group_9100" data-name="Group 9100" transform="translate(14.885 15.124)">
        <g id="Group_9096" data-name="Group 9096" transform="translate(72.745 55.438)">
          <g id="Group_9095" data-name="Group 9095" transform="translate(0)">
            <g id="Group_9094" data-name="Group 9094">
              <path id="Path_11639" data-name="Path 11639" d="M393.843,303.293a2.362,2.362,0,1,1,1.312-4.327A2.369,2.369,0,0,1,393.843,303.293Z" transform="translate(-391.488 -298.569)" fill="#e5b80b"/>
            </g>
          </g>
        </g>
        <g id="Group_9099" data-name="Group 9099">
          <g id="Group_9098" data-name="Group 9098">
            <g id="Group_9097" data-name="Group 9097">
              <path id="Path_11640" data-name="Path 11640" d="M153.407,76.125a40.757,40.757,0,0,0-69.718,28.051A40.931,40.931,0,0,0,103.046,139.5a12.391,12.391,0,0,1,5.906,10.6v9.147a2.363,2.363,0,0,0,2.363,2.363h3.425v5.9a2.363,2.363,0,0,0,2.363,2.363h14.612a2.363,2.363,0,0,0,2.363-2.363v-5.9H137.5a2.363,2.363,0,0,0,2.363-2.363V150.1a12.361,12.361,0,0,1,5.886-10.583,40.87,40.87,0,0,0,6.149-4.668,2.363,2.363,0,0,0-3.2-3.478,36.1,36.1,0,0,1-5.436,4.126,17.125,17.125,0,0,0-5.739,5.83V108.647a10.782,10.782,0,0,0-1.744-5.887L126.391,88.3a2.363,2.363,0,0,0-3.964,0l-9.392,14.458a10.784,10.784,0,0,0-1.744,5.887v32.687a17.2,17.2,0,0,0-5.757-5.85,36.384,36.384,0,0,1-17.12-31.246,36.109,36.109,0,0,1,36.539-35.512,36.144,36.144,0,0,1,35.453,35.993,36.586,36.586,0,0,1-.35,5.043,2.363,2.363,0,1,0,4.681.654,41.288,41.288,0,0,0,.4-5.7,40.485,40.485,0,0,0-11.727-28.593ZM117,105.334l1.819-2.8H130l1.819,2.8a6.064,6.064,0,0,1,.978,3.1,10.261,10.261,0,0,0-2.109-.218,10.129,10.129,0,0,0-6.278,2.149,10.129,10.129,0,0,0-6.278-2.149,10.259,10.259,0,0,0-2.109.218,6.064,6.064,0,0,1,.978-3.1Zm9.773,42.4V114.589a5.5,5.5,0,0,1,6.028-1.22v34.365Zm-10.754-34.364a5.5,5.5,0,0,1,6.027,1.22v33.145h-6.027Zm13.334,51.778h-9.885v-3.54h9.885Zm5.788-8.267H113.678V152.46H135.14ZM124.409,93.927l2.521,3.88h-5.041Z" transform="translate(-83.685 -63.995)" fill="#e5b80b"/>
            </g>
          </g>
        </g>
      </g>
    </g>
  </g>
</svg>
