<svg xmlns="http://www.w3.org/2000/svg" width="105.446" height="104.518" viewBox="0 0 105.446 104.518">
  <g id="svgexport-10" transform="translate(-2 30.799)">
    <g id="Group_9076" data-name="Group 9076" transform="translate(2 -30.799)">
      <g id="Group_9075" data-name="Group 9075" transform="translate(0 0)">
        <path id="Path_11618" data-name="Path 11618" d="M67.71,6.915H54.9a1.648,1.648,0,1,0,0,3.3H67.71a3.256,3.256,0,0,1,3.251,3.252v16.09a1.648,1.648,0,1,0,3.3,0V13.461A6.553,6.553,0,0,0,67.71,6.915Z" transform="translate(31.19 0.718)" fill="#e55d0b"/>
        <path id="Path_11619" data-name="Path 11619" d="M3.648,51.335A1.647,1.647,0,0,0,5.3,49.688V13.462A3.256,3.256,0,0,1,8.547,10.21H19.712a1.648,1.648,0,0,0,0-3.3H8.547A6.554,6.554,0,0,0,2,13.461V49.688A1.647,1.647,0,0,0,3.648,51.335Z" transform="translate(-2 0.718)" fill="#e55d0b"/>
        <path id="Path_11620" data-name="Path 11620" d="M105.8,25.658a1.647,1.647,0,0,0-1.648,1.648V54.935H5.3V47.319a1.648,1.648,0,1,0-3.3,0v17.81a6.545,6.545,0,0,0,6.547,6.528H41.19v8.262H38.905a7.766,7.766,0,0,0-7.757,7.757v2.338A1.647,1.647,0,0,0,32.8,91.661H76.645a1.647,1.647,0,0,0,1.648-1.648V87.676a7.766,7.766,0,0,0-7.756-7.757H68.257V71.657H100.9a6.544,6.544,0,0,0,6.546-6.528V27.305a1.647,1.647,0,0,0-1.648-1.648ZM75,87.676v.69H34.443v-.69a4.467,4.467,0,0,1,4.462-4.462c-.165,0,4.129,0,31.631,0A4.466,4.466,0,0,1,75,87.676ZM64.962,79.919H44.485V71.657H64.962Zm39.189-14.79a3.245,3.245,0,0,1-3.251,3.232H8.547A3.245,3.245,0,0,1,5.3,65.129v-6.9h98.856Z" transform="translate(-2 12.856)" fill="#e55d0b"/>
        <path id="Path_11621" data-name="Path 11621" d="M35.74,54.67a4.428,4.428,0,1,0-4.427-4.428A4.433,4.433,0,0,0,35.74,54.67Zm0-5.561a1.133,1.133,0,1,1-1.132,1.133A1.134,1.134,0,0,1,35.74,49.109Z" transform="translate(16.983 25.91)" fill="#e55d0b"/>
        <path id="Path_11622" data-name="Path 11622" d="M30.535,23.642a1.647,1.647,0,0,0-2.33,0l-5.3,5.3a2.329,2.329,0,0,0-.405.666L16.933,47.151A1.648,1.648,0,0,0,19,49.22l17.541-5.567a2.394,2.394,0,0,0,.667-.405l5.524-5.524a1.647,1.647,0,0,0-2.33-2.33l-4.359,4.359L31.223,34.93,26.4,30.107l4.135-4.135a1.647,1.647,0,0,0,0-2.33Zm-5.714,9.546,4.072,4.072,4.071,4.072L21.035,45.117Z" transform="translate(7.621 11.239)" fill="#e55d0b"/>
        <path id="Path_11623" data-name="Path 11623" d="M38.481,17.773l4.6-4.6,9.646,9.646-4.294,4.293a1.647,1.647,0,0,0,2.33,2.33l9.92-9.919a1.649,1.649,0,0,0,.46-1.437C59.877,10.509,55.393,6.025,47.816,4.757a1.659,1.659,0,0,0-1.437.46L36.152,15.444a1.647,1.647,0,0,0,2.33,2.33Zm9.612-9.61c5.346,1.134,8.511,4.3,9.645,9.644l-2.681,2.682-9.646-9.646Z" transform="translate(19.804 -0.693)" fill="#e55d0b"/>
        <path id="Path_11624" data-name="Path 11624" d="M64.221,66.4a1.647,1.647,0,0,0,2.33,0L78.526,54.422a1.647,1.647,0,0,0,0-2.33L29.179,2.745a1.7,1.7,0,0,0-2.33,0L14.874,14.721a1.647,1.647,0,0,0,0,2.33ZM28.014,6.24l2.17,2.17L27,11.59a1.647,1.647,0,0,0,2.33,2.33l3.18-3.18,3.625,3.625-1.481,1.481a1.647,1.647,0,1,0,2.33,2.33l1.481-1.481,3.178,3.178-3.179,3.179a1.647,1.647,0,0,0,2.33,2.33L43.977,22.2,47.6,25.828l-1.481,1.482a1.647,1.647,0,0,0,2.33,2.33l1.481-1.482,3.179,3.179-3.18,3.18a1.647,1.647,0,1,0,2.33,2.33l3.18-3.18,3.625,3.625-1.481,1.481a1.647,1.647,0,1,0,2.33,2.33L61.4,39.621,64.574,42.8l-3.18,3.18a1.647,1.647,0,0,0,2.33,2.33l3.18-3.18,3.626,3.626-1.481,1.481a1.647,1.647,0,0,0,2.33,2.33l1.481-1.481,2.173,2.173L65.386,62.9,18.369,15.886Z" transform="translate(6.025 -2.282)" fill="#e55d0b"/>
      </g>
    </g>
  </g>
</svg>
